<svg t="1609926888068" class="icon" viewBox="0 0 1024 1024" version="1.1" xmlns="http://www.w3.org/2000/svg" p-id="6598" width="20" height="20"><path d="M661.333333 341.333333c0-106.666667-85.333333-192-192-192s-192 85.333333-192 192c0 70.4 38.4 132.266667 93.866667 166.4-128 42.666667-221.866667 170.666667-221.866667 322.133334V853.333333c0 10.666667 10.666667 19.2 21.333334 19.2h2.133333c12.8 0 21.333333-10.666667 19.2-23.466666v-21.333334C192 667.733333 315.733333 533.333333 469.333333 533.333333c106.666667 0 192-85.333333 192-192z m-192 149.333334c-83.2 0-149.333333-66.133333-149.333333-149.333334s66.133333-149.333333 149.333333-149.333333 149.333333 66.133333 149.333334 149.333333-66.133333 149.333333-149.333334 149.333334zM810.666667 832h-164.266667c-12.8 0-21.333333 8.533333-21.333333 21.333333s8.533333 21.333333 21.333333 21.333334H810.666667c12.8 0 21.333333-8.533333 21.333333-21.333334s-8.533333-21.333333-21.333333-21.333333zM810.666667 704H588.8c-12.8 0-21.333333 8.533333-21.333333 21.333333s8.533333 21.333333 21.333333 21.333334H810.666667c12.8 0 21.333333-8.533333 21.333333-21.333334s-8.533333-21.333333-21.333333-21.333333z" p-id="6599"></path><path d="M832 597.333333c0-12.8-8.533333-21.333333-21.333333-21.333333H533.333333c-12.8 0-21.333333 8.533333-21.333333 21.333333s8.533333 21.333333 21.333333 21.333334h277.333334c12.8 0 21.333333-8.533333 21.333333-21.333334z" p-id="6600"></path></svg>