<svg t="1609926916742" class="icon" viewBox="0 0 1024 1024" version="1.1" xmlns="http://www.w3.org/2000/svg" p-id="7457" width="20" height="20"><path d="M512 0c282.7776 0 512 229.2224 512 512 0 282.7776-229.2224 512-512 512C229.2224 1024 0 794.7776 0 512 0 229.2224 229.2224 0 512 0z m0 51.2C257.501867 51.2 51.2 257.501867 51.2 512s206.301867 460.8 460.8 460.8 460.8-206.301867 460.8-460.8S766.498133 51.2 512 51.2z m221.866667 256l-64.4096 241.3568a170.666667 170.666667 0 0 1-120.8832 120.900267L307.2 733.866667l64.4096-241.3568a170.666667 170.666667 0 0 1 120.8832-120.900267L733.866667 307.2z m-72.277334 72.260267l-155.886933 41.608533a119.466667 119.466667 0 0 0-83.370667 80.247467l-1.262933 4.386133-41.608533 155.886933 155.904-41.591466a119.466667 119.466667 0 0 0 83.370666-80.247467l1.262934-4.386133 41.591466-155.904z" p-id="7458" fill="#64d85e"></path></svg>