<?xml version="1.0" standalone="no"?><!DOCTYPE svg PUBLIC "-//W3C//DTD SVG 1.1//EN" "http://www.w3.org/Graphics/SVG/1.1/DTD/svg11.dtd"><svg t="1730908880476" class="icon" viewBox="0 0 1024 1024" version="1.1" xmlns="http://www.w3.org/2000/svg" p-id="8868" width="32" height="32" xmlns:xlink="http://www.w3.org/1999/xlink"><path d="M734.085 448.547h31.727c17.522 0 31.726 14.204 31.726 31.726V512c0 17.522-14.204 31.727-31.726 31.727h-31.727c-17.522 0-31.727-14.205-31.727-31.727v-31.727c0-17.522 14.206-31.726 31.727-31.726z m0-158.633h31.727c17.522 0 31.726 14.204 31.726 31.726v31.727c0 17.522-14.204 31.727-31.726 31.727h-31.727c-17.522 0-31.727-14.205-31.727-31.727V321.64c0-17.522 14.206-31.726 31.727-31.726zM575.453 448.547h31.727c17.522 0 31.726 14.204 31.726 31.726V512c0 17.522-14.204 31.727-31.726 31.727h-31.727c-17.522 0-31.726-14.205-31.726-31.727v-31.727c0-17.522 14.204-31.726 31.726-31.726z m0-158.633h31.727c17.522 0 31.726 14.204 31.726 31.726v31.727c0 17.522-14.204 31.727-31.726 31.727h-31.727c-17.522 0-31.726-14.205-31.726-31.727V321.64c0-17.522 14.204-31.726 31.726-31.726zM353.367 638.906h317.265c17.522 0 31.726 14.205 31.726 31.727v31.727c0 17.522-14.204 31.726-31.726 31.726H353.367c-17.522 0-31.727-14.204-31.727-31.726v-31.727c0-17.522 14.205-31.727 31.727-31.727z m63.453-190.36h31.727c17.522 0 31.726 14.205 31.726 31.727V512c0 17.522-14.204 31.727-31.726 31.727H416.82c-17.522 0-31.726-14.205-31.726-31.727v-31.727c0-17.522 14.204-31.726 31.726-31.726z m0-158.632h31.727c17.522 0 31.726 14.204 31.726 31.726v31.727c0 17.522-14.204 31.727-31.726 31.727H416.82c-17.522 0-31.726-14.205-31.726-31.727V321.64c0-17.522 14.204-31.726 31.726-31.726zM258.187 448.547h31.727c17.522 0 31.726 14.204 31.726 31.726V512c0 17.522-14.204 31.727-31.726 31.727h-31.727c-17.522 0-31.726-14.205-31.726-31.727v-31.727c0-17.522 14.204-31.726 31.726-31.726z m0-158.633h31.727c17.522 0 31.726 14.204 31.726 31.726v31.727c0 17.522-14.204 31.727-31.726 31.727h-31.727c-17.522 0-31.726-14.205-31.726-31.727V321.64c0-17.522 14.204-31.726 31.726-31.726zM512 987.898c262.831 0 475.898-213.067 475.898-475.898S774.83 36.102 512 36.102 36.102 249.17 36.102 512 249.17 987.898 512 987.898z m0 31.726C231.647 1019.624 4.376 792.354 4.376 512S231.646 4.376 512 4.376 1019.624 231.646 1019.624 512 792.354 1019.624 512 1019.624z" p-id="8869"></path></svg>