<svg t="1609986020951" class="icon" viewBox="0 0 1024 1024" version="1.1" xmlns="http://www.w3.org/2000/svg" p-id="3123" width="20" height="20"><path d="M789.522 790.983c92.831-78.706 151.754-196.181 151.754-327.424 0-236.973-192.105-429.081-429.077-429.081s-429.077 192.108-429.077 429.081c0 236.979 192.105 429.081 429.077 429.081 81.956 0 158.542-22.982 223.675-62.847l148.256 154.578c6.126 6.592 16.803 7.289 23.846 1.554l25.514-20.778c7.043-5.732 7.786-15.728 1.66-22.322l-145.627-151.842zM149.133 463.559c0-200.514 162.551-363.062 363.066-363.062s363.066 162.548 363.066 363.062c0 200.517-162.551 363.072-363.066 363.072s-363.066-162.555-363.066-363.072z" p-id="3124"></path></svg>